<svg width="251" height="76" viewBox="0 0 251 76" fill="none" xmlns="http://www.w3.org/2000/svg">
<path d="M236.499 0H14.7263C6.73466 0 0.248718 6.48595 0.248718 14.4776V60.9216C0.248718 68.9132 6.73466 75.3991 14.7263 75.3991H236.522C244.514 75.3991 251 68.9132 251 60.9216V14.4776C250.977 6.48595 244.514 0 236.499 0Z" fill="white"/>
<path d="M56.9312 30.7619L50.1904 37.4564L30.3851 17.2804C31.3812 16.6782 32.6784 16.5855 33.8134 17.2573L56.9312 30.7619Z" fill="#00F076"/>
<path d="M57.0933 44.5445L33.7903 58.1419C32.4004 58.9526 30.7789 58.6283 29.7597 57.6554L50.1673 37.4795L57.0933 44.5445Z" fill="#F73448"/>
<path d="M63.8341 40.6066L57.1628 44.4982L57.1165 44.5214L50.1904 37.4563L56.9312 30.7619L56.9775 30.7851L63.8109 34.7693C66.0578 36.0896 66.0578 39.3095 63.8341 40.6066Z" fill="#FFCA00"/>
<path d="M29.7597 57.6554C29.7366 57.6323 29.7366 57.6323 29.7134 57.6091C29.1111 57.0068 28.7173 56.1961 28.7173 55.2232V20.1759C28.7173 18.9251 29.3659 17.9059 30.2925 17.3268C30.3157 17.3268 30.3157 17.3036 30.3388 17.3036L50.1441 37.4795L29.7597 57.6554Z" fill="#00D2FF"/>
<path d="M103.63 42.4598H100.943H93.9475V45.1468H100.735C99.9238 48.135 97.1905 50.3355 93.9475 50.3355C90.0559 50.3355 86.9056 47.1852 86.9056 43.2937C86.9056 39.4021 90.0559 36.2518 93.9475 36.2518C95.7774 36.2518 97.4684 36.9467 98.7193 38.1049L100.619 36.2054C98.8814 34.5608 96.5419 33.5647 93.9475 33.5647C88.5734 33.5647 84.2186 37.9196 84.2186 43.2937C84.2186 48.6677 88.5734 53.0226 93.9475 53.0226C99.3216 53.0226 103.676 48.6677 103.676 43.2937C103.653 43.0157 103.653 42.7377 103.63 42.4598Z" fill="black"/>
<path d="M111.274 40.4677C107.846 40.4677 105.066 43.2705 105.066 46.722C105.066 50.1734 107.846 52.9763 111.274 52.9763C114.702 52.9763 117.482 50.1734 117.482 46.722C117.505 43.2705 114.726 40.4677 111.274 40.4677ZM111.274 50.4977C109.398 50.4977 107.869 48.8531 107.869 46.8146C107.869 44.7762 109.398 43.1315 111.274 43.1315C113.15 43.1315 114.679 44.7762 114.679 46.8146C114.679 48.8531 113.15 50.4977 111.274 50.4977Z" fill="black"/>
<path d="M125.126 40.4677C121.698 40.4677 118.918 43.2705 118.918 46.722C118.918 50.1734 121.698 52.9763 125.126 52.9763C128.555 52.9763 131.334 50.1734 131.334 46.722C131.334 43.2705 128.555 40.4677 125.126 40.4677ZM125.126 50.4977C123.25 50.4977 121.721 48.8531 121.721 46.8146C121.721 44.7762 123.25 43.1315 125.126 43.1315C127.003 43.1315 128.531 44.7762 128.531 46.8146C128.531 48.8531 127.003 50.4977 125.126 50.4977Z" fill="black"/>
<path d="M148.337 33.5879H145.65V53.2311H148.337V33.5879Z" fill="black"/>
<path d="M159.363 48.3203C158.969 49.1542 158.274 49.7796 157.417 50.1271C156.514 50.4746 155.518 50.4746 154.614 50.0808C154.035 49.826 153.549 49.4553 153.178 48.9689L162.305 45.4016L162.166 44.9384C162.119 44.753 162.05 44.5909 161.98 44.4287C161.355 42.8536 160.174 41.6027 158.622 40.931C157.07 40.2592 155.356 40.2129 153.757 40.8383C152.182 41.4637 150.931 42.6451 150.259 44.1971C149.588 45.7491 149.541 47.4632 150.167 49.0616C150.792 50.6367 151.974 51.8876 153.526 52.5593C154.336 52.9068 155.193 53.0921 156.074 53.0921C156.861 53.0921 157.649 52.9531 158.39 52.652C159.896 52.0497 161.123 50.9379 161.818 49.4554L162.05 48.9457L159.595 47.8802L159.363 48.3203ZM158.529 43.9886L152.437 46.3745C152.483 45.9807 152.576 45.6101 152.738 45.2395C153.132 44.3361 153.85 43.6643 154.753 43.2937C155.193 43.1316 155.634 43.0389 156.074 43.0389C156.977 43.0621 157.857 43.3864 158.529 43.9886Z" fill="black"/>
<path d="M141.573 40.4677V41.5795C140.67 40.8846 139.558 40.4677 138.376 40.4677C135.272 40.4677 132.747 43.2705 132.747 46.722C132.747 50.1734 135.272 52.9763 138.376 52.9763C139.558 52.9763 140.67 52.5593 141.573 51.8644V53.2079C141.573 53.9723 141.017 56.1266 138.492 56.1266C135.967 56.1266 135.249 53.8565 135.249 53.8565L132.817 54.9916C132.817 54.9916 133.743 58.5588 138.747 58.5588C141.457 58.5588 142.847 56.9837 143.565 55.5475C144.051 54.5746 144.283 53.4859 144.283 52.3972V40.4213H141.573V40.4677ZM138.376 50.4977C136.662 50.4977 135.295 48.8531 135.295 46.8146C135.295 44.7762 136.685 43.1315 138.376 43.1315C140.09 43.1315 141.457 44.7762 141.457 46.8146C141.457 48.8531 140.067 50.4977 138.376 50.4977Z" fill="black"/>
<path d="M174.281 33.5879H171.594V53.2311H174.281V33.5879Z" fill="black"/>
<path d="M178.056 33.5879V36.2749C179.933 36.2749 181.461 37.9196 181.461 39.958C181.461 41.9965 179.933 43.6411 178.056 43.6411V46.0965C181.485 46.0965 184.264 43.2937 184.264 39.8422C184.264 36.3908 181.485 33.5879 178.056 33.5879Z" fill="black"/>
<path d="M178.056 33.5879H173.539V36.2749H178.056V33.5879Z" fill="black"/>
<path d="M178.056 43.618H173.539V46.0965H178.056V43.618Z" fill="black"/>
<path d="M188.341 33.5879H185.654V53.2311H188.341V33.5879Z" fill="black"/>
<path d="M197.12 51.517L197.445 51.1695V53.0458H199.715V44.9384C199.715 44.174 199.622 43.5254 199.437 42.9694C199.251 42.4367 198.973 41.9965 198.603 41.6722C198.209 41.3248 197.723 41.07 197.12 40.9078C196.518 40.7457 195.754 40.653 194.897 40.653C194.41 40.653 193.924 40.6993 193.484 40.7688C193.02 40.8383 192.603 40.9541 192.21 41.07C191.862 41.1858 191.561 41.3016 191.306 41.4174L191.445 43.5485C191.607 43.4559 191.793 43.3864 192.001 43.2937C192.325 43.1547 192.719 43.0158 193.136 42.8999C193.576 42.7841 194.063 42.7146 194.619 42.7146C195.036 42.7146 195.406 42.7609 195.707 42.8536C196.008 42.9463 196.263 43.1084 196.449 43.2937C196.634 43.5022 196.773 43.7338 196.842 44.035C196.912 44.3129 196.958 44.6372 196.958 45.0079V45.8881H195.661C194.665 45.8881 193.785 45.9576 193.043 46.1197C192.302 46.2587 191.677 46.4904 191.19 46.7915C190.704 47.0926 190.333 47.4633 190.102 47.9265C189.87 48.3898 189.731 48.9226 189.731 49.548C189.731 50.1271 189.824 50.6367 190.009 51.0769C190.194 51.4938 190.472 51.8644 190.82 52.1656C191.167 52.4667 191.584 52.6752 192.071 52.8373C192.557 52.9763 193.09 53.069 193.669 53.069C194.364 53.069 195.012 52.93 195.568 52.6752C196.147 52.374 196.68 51.9803 197.12 51.517ZM195.707 50.7989C195.314 51.0537 194.85 51.1695 194.364 51.1695C193.785 51.1695 193.321 51.0074 192.997 50.7062C192.65 50.4051 192.488 49.965 192.488 49.4554C192.488 49.1542 192.557 48.8763 192.673 48.6215C192.789 48.3667 192.974 48.1582 193.229 47.996C193.484 47.8339 193.808 47.6949 194.179 47.6254C194.549 47.5559 195.012 47.5096 195.545 47.5096H196.958V49.7102L196.912 49.7565C196.518 50.1966 196.101 50.5441 195.707 50.7989Z" fill="black"/>
<path d="M210.37 40.6762L208.401 45.2163L207.197 47.996L206.386 46.0965L204.023 40.6762H201.105L204.927 49.4785L205.761 51.4475L203.56 56.8678H206.479L208.401 51.9802L209.861 48.5983L213.289 40.6762H210.37Z" fill="black"/>
<path d="M100.503 26.2681C100.503 26.3376 100.503 26.3839 100.48 26.4303C100.48 26.4766 100.457 26.5229 100.433 26.5693C100.41 26.6156 100.387 26.6388 100.364 26.6388C100.341 26.6619 100.294 26.6619 100.271 26.6619H95.708C95.6153 26.6619 95.5227 26.6388 95.43 26.5693C95.3374 26.4998 95.291 26.3839 95.291 26.1986V17.4194C95.291 17.2341 95.3374 17.1183 95.43 17.0488C95.5227 16.9793 95.6153 16.9562 95.708 16.9562H100.202C100.248 16.9562 100.271 16.9562 100.294 16.9793C100.318 17.0025 100.341 17.0257 100.364 17.0488C100.387 17.0951 100.41 17.1183 100.41 17.1878C100.41 17.2341 100.433 17.3036 100.433 17.3731C100.433 17.4426 100.433 17.4889 100.41 17.5353C100.41 17.5816 100.387 17.6279 100.364 17.6511C100.341 17.6742 100.318 17.6974 100.294 17.7206C100.271 17.7437 100.225 17.7437 100.202 17.7437H96.1944V21.172H99.6459C99.6922 21.172 99.7154 21.172 99.7617 21.1952C99.7849 21.2184 99.808 21.2415 99.8312 21.2647C99.8544 21.2878 99.8775 21.3342 99.8775 21.4037C99.8775 21.45 99.9007 21.5195 99.9007 21.589C99.9007 21.6585 99.9007 21.7048 99.8775 21.7511C99.8775 21.7975 99.8544 21.8438 99.8312 21.8669C99.808 21.8901 99.7849 21.9133 99.7617 21.9364C99.7385 21.9596 99.6922 21.9596 99.6459 21.9596H96.1944V25.828H100.248C100.294 25.828 100.318 25.828 100.341 25.8512C100.364 25.8743 100.387 25.8975 100.41 25.9207C100.433 25.9438 100.457 25.9902 100.457 26.0597C100.503 26.1291 100.503 26.1986 100.503 26.2681Z" fill="black"/>
<path d="M108.703 17.35C108.703 17.4195 108.703 17.4658 108.68 17.5121C108.68 17.5585 108.657 17.6048 108.634 17.6279C108.61 17.6511 108.587 17.6743 108.564 17.6974C108.541 17.7206 108.495 17.7206 108.471 17.7206H105.576V26.4766C105.576 26.4998 105.576 26.523 105.553 26.5693C105.53 26.5925 105.506 26.6156 105.483 26.6388C105.437 26.6619 105.391 26.6619 105.344 26.6851C105.275 26.6851 105.205 26.7083 105.136 26.7083C105.043 26.7083 104.974 26.7083 104.927 26.6851C104.858 26.6851 104.811 26.6619 104.788 26.6388C104.742 26.6156 104.719 26.5925 104.719 26.5693C104.696 26.5461 104.696 26.523 104.696 26.4766V17.7206H101.754C101.707 17.7206 101.684 17.7206 101.661 17.6974C101.638 17.6743 101.615 17.6511 101.592 17.6279C101.568 17.6048 101.545 17.5585 101.545 17.5121C101.545 17.4658 101.522 17.3963 101.522 17.35C101.522 17.2805 101.522 17.211 101.545 17.1647C101.545 17.1183 101.568 17.072 101.592 17.0257C101.615 16.9794 101.638 16.9562 101.661 16.9562C101.684 16.933 101.731 16.933 101.754 16.933H108.471C108.518 16.933 108.541 16.933 108.564 16.9562C108.587 16.9794 108.61 17.0025 108.634 17.0257C108.657 17.072 108.68 17.0952 108.68 17.1647C108.703 17.2342 108.703 17.2805 108.703 17.35Z" fill="black"/>
<path d="M114.656 26.5229C114.656 26.5461 114.656 26.5693 114.633 26.6156C114.61 26.6388 114.587 26.6619 114.563 26.6851C114.517 26.7083 114.471 26.7083 114.425 26.7314C114.378 26.7314 114.286 26.7546 114.193 26.7546C114.1 26.7546 114.031 26.7546 113.984 26.7314C113.915 26.7314 113.869 26.7083 113.845 26.6851C113.799 26.6619 113.776 26.6388 113.776 26.6156C113.753 26.5924 113.753 26.5693 113.753 26.5229V17.0952C113.753 17.072 113.753 17.0488 113.776 17.0025C113.799 16.9793 113.822 16.9562 113.869 16.933C113.915 16.9098 113.961 16.9098 114.008 16.8867C114.054 16.8867 114.123 16.8635 114.216 16.8635C114.309 16.8635 114.378 16.8635 114.448 16.8867C114.494 16.8867 114.54 16.9098 114.587 16.933C114.633 16.9562 114.656 16.9793 114.656 17.0025C114.679 17.0257 114.679 17.0488 114.679 17.0952V26.5229H114.656Z" fill="black"/>
<path d="M123.389 17.35C123.389 17.4195 123.389 17.4658 123.366 17.5121C123.366 17.5585 123.343 17.6048 123.32 17.6279C123.296 17.6511 123.273 17.6743 123.25 17.6974C123.227 17.7206 123.181 17.7206 123.157 17.7206H120.262V26.4766C120.262 26.4998 120.262 26.523 120.239 26.5693C120.216 26.5925 120.192 26.6156 120.169 26.6388C120.123 26.6619 120.077 26.6619 120.03 26.6851C119.961 26.6851 119.891 26.7083 119.822 26.7083C119.729 26.7083 119.66 26.7083 119.613 26.6851C119.544 26.6851 119.497 26.6619 119.474 26.6388C119.428 26.6156 119.405 26.5925 119.405 26.5693C119.382 26.5461 119.382 26.523 119.382 26.4766V17.7206H116.486C116.44 17.7206 116.417 17.7206 116.394 17.6974C116.37 17.6743 116.347 17.6511 116.324 17.6279C116.301 17.6048 116.278 17.5585 116.278 17.5121C116.278 17.4658 116.255 17.3963 116.255 17.35C116.255 17.2805 116.255 17.211 116.278 17.1647C116.278 17.1183 116.301 17.072 116.324 17.0257C116.347 16.9794 116.37 16.9562 116.394 16.9562C116.417 16.933 116.463 16.933 116.486 16.933H123.204C123.25 16.933 123.273 16.933 123.296 16.9562C123.32 16.9794 123.343 17.0025 123.366 17.0257C123.389 17.072 123.412 17.0952 123.412 17.1647C123.389 17.2342 123.389 17.2805 123.389 17.35Z" fill="black"/>
<path d="M136.245 21.6817C136.245 22.4692 136.152 23.1642 135.967 23.7896C135.782 24.415 135.527 24.9478 135.156 25.3879C134.809 25.828 134.346 26.1755 133.813 26.4071C133.28 26.6388 132.632 26.7778 131.913 26.7778C131.195 26.7778 130.57 26.6619 130.06 26.4303C129.551 26.1987 129.111 25.8744 128.786 25.4574C128.462 25.0404 128.207 24.5077 128.045 23.9054C127.883 23.3031 127.813 22.6082 127.813 21.8438C127.813 21.0794 127.906 20.3845 128.068 19.759C128.254 19.1336 128.508 18.6008 128.879 18.1607C129.226 17.7206 129.69 17.3731 130.222 17.1415C130.755 16.9099 131.404 16.7709 132.122 16.7709C132.84 16.7709 133.442 16.8867 133.952 17.1183C134.462 17.35 134.902 17.6743 135.226 18.0912C135.573 18.5082 135.805 19.0178 135.967 19.6201C136.176 20.2455 136.245 20.9404 136.245 21.6817ZM135.272 21.7743C135.272 21.1952 135.226 20.6624 135.11 20.1528C134.994 19.6432 134.832 19.2031 134.577 18.8325C134.323 18.4618 133.998 18.1607 133.581 17.9522C133.164 17.7438 132.655 17.6279 132.052 17.6279C131.45 17.6279 130.941 17.7438 130.524 17.9522C130.107 18.1839 129.782 18.485 129.528 18.8556C129.273 19.2263 129.087 19.6664 128.972 20.176C128.856 20.6856 128.809 21.1952 128.809 21.7511C128.809 22.3534 128.856 22.8862 128.972 23.3958C129.064 23.9054 129.25 24.3455 129.504 24.7162C129.759 25.0868 130.083 25.3879 130.5 25.5964C130.917 25.8049 131.427 25.9207 132.052 25.9207C132.655 25.9207 133.187 25.8049 133.604 25.5732C134.021 25.3416 134.346 25.0404 134.6 24.6467C134.855 24.2529 135.041 23.8128 135.156 23.3263C135.226 22.863 135.272 22.3302 135.272 21.7743Z" fill="black"/>
<path d="M145.488 26.2218C145.488 26.3145 145.464 26.384 145.441 26.4534C145.418 26.5229 145.372 26.5693 145.325 26.5924C145.279 26.6388 145.233 26.6619 145.186 26.6619C145.14 26.6851 145.094 26.6851 145.048 26.6851H144.862C144.77 26.6851 144.677 26.6619 144.584 26.6388C144.492 26.6156 144.422 26.5693 144.353 26.4998C144.283 26.4303 144.19 26.3608 144.121 26.245C144.051 26.1291 143.959 26.0133 143.866 25.828L140.438 19.759C140.276 19.4579 140.09 19.1568 139.928 18.8556C139.766 18.5313 139.581 18.2302 139.442 17.9522C139.442 18.3228 139.442 18.6935 139.442 19.0873C139.442 19.481 139.442 19.8517 139.442 20.2223V26.5229C139.442 26.5461 139.442 26.5693 139.419 26.6156C139.395 26.6388 139.372 26.6619 139.349 26.6851C139.303 26.7082 139.256 26.7082 139.21 26.7314C139.164 26.7314 139.071 26.7546 138.979 26.7546C138.886 26.7546 138.816 26.7546 138.77 26.7314C138.701 26.7314 138.654 26.7082 138.631 26.6851C138.585 26.6619 138.562 26.6388 138.562 26.6156C138.538 26.5924 138.538 26.5693 138.538 26.5229V17.4194C138.538 17.2341 138.585 17.1183 138.677 17.0488C138.77 16.9793 138.863 16.9562 138.955 16.9562H139.326C139.442 16.9562 139.558 16.9562 139.627 16.9793C139.697 17.0025 139.789 17.0257 139.836 17.072C139.905 17.1183 139.975 17.1878 140.021 17.2805C140.09 17.3731 140.16 17.4889 140.229 17.6048L142.847 22.2607C143.009 22.5619 143.171 22.8398 143.31 23.0946C143.449 23.3726 143.611 23.6274 143.75 23.8822C143.889 24.137 144.028 24.3918 144.167 24.6466C144.306 24.9014 144.445 25.1563 144.584 25.4111C144.584 24.9941 144.584 24.554 144.584 24.0907C144.584 23.6274 144.584 23.1873 144.584 22.7704V17.1183C144.584 17.0951 144.584 17.072 144.607 17.0257C144.631 17.0025 144.654 16.9793 144.677 16.9562C144.723 16.933 144.77 16.933 144.816 16.9098C144.862 16.9098 144.955 16.9098 145.048 16.9098C145.117 16.9098 145.186 16.9098 145.256 16.9098C145.325 16.9098 145.372 16.933 145.395 16.9562C145.441 16.9793 145.464 17.0025 145.464 17.0257C145.488 17.0488 145.488 17.072 145.488 17.1183V26.2218Z" fill="black"/>
<path d="M84.2186 21.7975C84.2186 24.415 86.3497 26.5461 88.9672 26.5461C91.5847 26.5461 93.7158 24.415 93.7158 21.7975C93.7158 21.728 93.7158 21.6585 93.7158 21.589H89.1757V22.5155H92.7198L92.6503 22.7935C92.187 24.4613 90.6814 25.6195 88.944 25.6195C86.8361 25.6195 85.0988 23.9054 85.0988 21.7743C85.0988 19.6664 86.813 17.9291 88.944 17.9291C89.8243 17.9291 90.6814 18.2302 91.3763 18.8093L92.0249 18.1607C91.1678 17.4194 90.0791 17.0257 88.944 17.0257C86.3497 17.0257 84.2186 19.1799 84.2186 21.7975Z" fill="black"/>
</svg>
