<svg width="251" height="76" viewBox="0 0 251 76" fill="none" xmlns="http://www.w3.org/2000/svg">
<path d="M236.274 0.0578613H14.4776C6.48595 0.0578613 0 6.54381 0 14.5354V60.9794C0 68.971 6.48595 75.457 14.4776 75.457H236.274C244.265 75.457 250.751 68.971 250.751 60.9794V14.5354C250.774 6.54381 244.289 0.0578613 236.274 0.0578613Z" fill="white"/>
<path d="M57.8176 40.595C56.613 34.4565 61.9408 31.1904 62.3346 30.9587C61.5238 29.87 60.5741 29.0361 59.6012 28.457C56.4046 26.4649 52.5362 26.2796 50.2197 27.2988C50.1966 27.2988 50.1734 27.322 50.1502 27.322C47.9033 28.2949 45.3321 28.2949 43.0852 27.322C43.062 27.322 43.0389 27.2988 43.0157 27.2988C40.6993 26.2796 36.8309 26.4649 33.6343 28.457C30.4376 30.4491 27.3568 34.9198 28.9319 43.5137C30.5071 52.1076 36.2286 57.3195 36.2286 57.3195C36.2286 57.3195 38.962 59.6822 42.5524 58.1071C44.7994 57.1342 45.8186 56.9489 46.2818 56.972C46.5135 56.972 46.722 56.972 46.9536 56.972C47.4169 56.972 48.4361 57.1342 50.683 58.1071C54.2966 59.6822 57.0068 57.3195 57.0068 57.3195C57.0068 57.3195 61.0142 53.6595 63.2611 47.4284C61.3617 46.5482 58.6283 44.6024 57.8176 40.595Z" fill="black"/>
<path d="M45.6101 26.9746C45.6101 26.9746 44.5909 18.4039 54.2503 16.875L54.204 18.0332C54.065 22.7587 50.3587 26.6271 45.6101 26.9746Z" fill="black"/>
<path d="M84.1552 19.5157C84.1552 20.5813 84.0162 21.5078 83.7614 22.3186C83.5066 23.1293 83.1128 23.8011 82.58 24.3339C82.0704 24.8666 81.4218 25.2836 80.6574 25.5616C79.893 25.8395 78.9896 25.9785 77.924 25.9785H75.4455C75.3296 25.9785 75.2138 25.9322 75.0749 25.8395C74.959 25.7469 74.8895 25.5847 74.8895 25.3531V14.0027C74.8895 13.771 74.959 13.6089 75.0749 13.5162C75.1907 13.4236 75.3065 13.3773 75.4455 13.3773H78.0862C79.1517 13.3773 80.0551 13.5162 80.7964 13.8174C81.5376 14.1185 82.1399 14.5123 82.6495 15.0451C83.1359 15.5778 83.5297 16.2264 83.7614 16.9677C84.0162 17.7553 84.1552 18.5892 84.1552 19.5157ZM82.8811 19.5621C82.8811 18.8208 82.7885 18.1491 82.6032 17.5236C82.4179 16.8982 82.1399 16.3654 81.7461 15.9021C81.3523 15.4389 80.8659 15.0914 80.2868 14.8366C79.7077 14.5818 78.9432 14.4428 78.0398 14.4428H76.1172V24.8898H78.063C78.9201 24.8898 79.6382 24.774 80.2404 24.5655C80.8427 24.357 81.3291 24.0327 81.7229 23.5926C82.1167 23.1525 82.4179 22.5966 82.6032 21.9248C82.7885 21.2994 82.8811 20.4886 82.8811 19.5621Z" fill="black"/>
<path d="M94.5558 21.2994C94.5558 21.9943 94.4631 22.6429 94.2778 23.222C94.0925 23.8011 93.8377 24.3339 93.4671 24.7508C93.0965 25.1909 92.6563 25.5152 92.1236 25.77C91.5908 26.0017 90.9654 26.1407 90.2473 26.1407C89.5524 26.1407 88.9501 26.0249 88.4405 25.8164C87.9309 25.6079 87.4907 25.2836 87.1433 24.8898C86.7958 24.496 86.541 23.9864 86.3557 23.4073C86.1936 22.8282 86.1009 22.1796 86.1009 21.4615C86.1009 20.7666 86.1936 20.118 86.3789 19.5389C86.5642 18.9598 86.819 18.4502 87.1896 18.0101C87.5603 17.57 88.0003 17.2457 88.5331 17.014C89.0659 16.7824 89.6913 16.6434 90.4094 16.6434C91.1044 16.6434 91.7066 16.7592 92.2162 16.9677C92.7259 17.1762 93.1659 17.5005 93.5134 17.8943C93.8609 18.288 94.1157 18.7977 94.301 19.3768C94.4632 19.9327 94.5558 20.5813 94.5558 21.2994ZM93.3281 21.4152C93.3281 20.9056 93.2818 20.4423 93.1891 19.979C93.0965 19.5157 92.9343 19.122 92.7027 18.7745C92.471 18.427 92.1699 18.1491 91.7993 17.9406C91.4287 17.7321 90.9422 17.6394 90.3631 17.6394C89.8303 17.6394 89.3902 17.7321 88.9964 17.9174C88.6258 18.1027 88.3015 18.3575 88.0698 18.705C87.8382 19.0293 87.6529 19.4231 87.5371 19.8864C87.4213 20.3496 87.3518 20.8361 87.3518 21.3457C87.3518 21.8553 87.3981 22.3418 87.4907 22.7819C87.5834 23.2452 87.7456 23.6389 87.9772 23.9864C88.2088 24.3339 88.51 24.6118 88.8806 24.7972C89.2512 25.0056 89.7377 25.0983 90.3168 25.0983C90.8496 25.0983 91.2897 25.0056 91.6835 24.8203C92.0541 24.635 92.3784 24.3802 92.61 24.0327C92.8417 23.7084 93.027 23.3146 93.1428 22.8514C93.2818 22.4344 93.3281 21.948 93.3281 21.4152Z" fill="black"/>
<path d="M108.709 16.9677C108.709 16.9908 108.709 17.0372 108.686 17.0835C108.663 17.1298 108.663 17.1761 108.663 17.2225L105.953 25.77C105.929 25.8163 105.906 25.8627 105.883 25.8858C105.837 25.909 105.79 25.9553 105.744 25.9553C105.675 25.9785 105.605 25.9785 105.512 26.0017C105.42 26.0017 105.304 26.0017 105.188 26.0017C105.049 26.0017 104.933 26.0017 104.841 25.9785C104.748 25.9785 104.655 25.9553 104.609 25.9322C104.563 25.909 104.493 25.8858 104.47 25.8627C104.424 25.8395 104.401 25.7932 104.401 25.7469L102.362 18.8208L102.339 18.7513L102.316 18.8208L100.416 25.7469C100.393 25.7932 100.37 25.8395 100.347 25.8627C100.3 25.8858 100.254 25.9322 100.185 25.9322C100.115 25.9553 100.046 25.9553 99.9299 25.9785C99.8373 25.9785 99.7214 25.9785 99.6056 25.9785C99.4666 25.9785 99.374 25.9785 99.2813 25.9553C99.1886 25.9553 99.1192 25.9322 99.0497 25.909C98.9802 25.8858 98.9338 25.8627 98.9107 25.8395C98.8875 25.8163 98.8643 25.77 98.8412 25.7237L96.131 17.1761C96.1078 17.1298 96.1078 17.0835 96.0846 17.0372C96.0846 16.9908 96.0615 16.9445 96.0615 16.9213C96.0615 16.875 96.0615 16.8287 96.0846 16.8055C96.1078 16.7824 96.131 16.7592 96.1773 16.736C96.2236 16.7129 96.27 16.7129 96.3626 16.7129C96.4321 16.7129 96.5248 16.7129 96.6174 16.7129C96.7564 16.7129 96.8722 16.7129 96.9417 16.736C97.0344 16.736 97.0807 16.7592 97.127 16.7823C97.1734 16.8055 97.1965 16.8287 97.2197 16.8518C97.2428 16.875 97.266 16.9213 97.266 16.9677L99.5824 24.635L99.6056 24.7045L99.6288 24.635L101.737 16.9677C101.76 16.9213 101.76 16.875 101.783 16.8518C101.806 16.8287 101.829 16.7823 101.876 16.7823C101.922 16.7592 101.968 16.7592 102.061 16.736C102.13 16.736 102.223 16.7129 102.339 16.7129C102.455 16.7129 102.547 16.7129 102.617 16.736C102.686 16.736 102.756 16.7592 102.802 16.7823C102.849 16.8055 102.872 16.8287 102.895 16.8518C102.918 16.875 102.941 16.9213 102.941 16.9677L105.211 24.635L105.234 24.7045V24.635L107.551 16.9677C107.574 16.9213 107.574 16.875 107.597 16.8518C107.62 16.8287 107.644 16.7823 107.69 16.7823C107.736 16.7592 107.806 16.7592 107.875 16.736C107.945 16.736 108.06 16.7129 108.199 16.7129C108.292 16.7129 108.385 16.7129 108.454 16.7129C108.524 16.7129 108.57 16.736 108.616 16.7592C108.663 16.7824 108.686 16.8055 108.686 16.8287C108.709 16.8982 108.709 16.9445 108.709 16.9677Z" fill="black"/>
<path d="M118.067 25.7932C118.067 25.8396 118.067 25.8627 118.044 25.9091C118.021 25.9322 117.998 25.9785 117.952 25.9785C117.905 26.0017 117.859 26.0249 117.766 26.0249C117.697 26.048 117.604 26.048 117.488 26.048C117.372 26.048 117.28 26.048 117.21 26.0249C117.141 26.0017 117.071 26.0017 117.025 25.9785C116.979 25.9554 116.956 25.9322 116.932 25.9091C116.909 25.8859 116.909 25.8396 116.909 25.7932V20.5813C116.909 20.0485 116.863 19.5853 116.793 19.261C116.701 18.9135 116.585 18.6355 116.423 18.3807C116.261 18.1491 116.029 17.9406 115.774 17.8248C115.519 17.6858 115.195 17.6163 114.848 17.6163C114.407 17.6163 113.944 17.7785 113.504 18.1028C113.064 18.4271 112.578 18.8903 112.091 19.4926V25.7932C112.091 25.8396 112.091 25.8627 112.068 25.9091C112.045 25.9322 112.022 25.9785 111.975 25.9785C111.929 26.0017 111.883 26.0249 111.79 26.0249C111.72 26.048 111.628 26.048 111.512 26.048C111.396 26.048 111.303 26.048 111.234 26.0249C111.164 26.0017 111.095 26.0017 111.049 25.9785C111.002 25.9554 110.979 25.9322 110.956 25.9091C110.933 25.8859 110.933 25.8396 110.933 25.7932V17.014C110.933 16.9677 110.933 16.9446 110.956 16.8982C110.979 16.8519 111.002 16.8287 111.049 16.8056C111.095 16.7824 111.141 16.7592 111.211 16.7592C111.28 16.7592 111.373 16.7361 111.489 16.7361C111.605 16.7361 111.697 16.7361 111.767 16.7592C111.836 16.7592 111.883 16.7824 111.929 16.8056C111.975 16.8287 111.998 16.8519 112.022 16.8982C112.045 16.9446 112.045 16.9677 112.045 17.014V18.2649C112.554 17.709 113.041 17.292 113.527 17.0372C114.014 16.7824 114.5 16.6666 114.963 16.6666C115.542 16.6666 116.029 16.7592 116.423 16.9677C116.817 17.153 117.141 17.431 117.372 17.7553C117.604 18.0796 117.789 18.4734 117.905 18.9135C118.021 19.3536 118.067 19.8864 118.067 20.5118V25.7932V25.7932Z" fill="black"/>
<path d="M122.445 25.7932C122.445 25.8395 122.445 25.8627 122.422 25.909C122.399 25.9321 122.376 25.9785 122.33 25.9785C122.283 26.0016 122.237 26.0248 122.144 26.0248C122.075 26.048 121.982 26.048 121.866 26.048C121.75 26.048 121.658 26.048 121.588 26.0248C121.519 26.0016 121.449 26.0016 121.403 25.9785C121.357 25.9553 121.333 25.9321 121.31 25.909C121.287 25.8858 121.287 25.8395 121.287 25.7932V12.7054C121.287 12.6591 121.287 12.636 121.31 12.5896C121.333 12.5665 121.357 12.5201 121.403 12.497C121.449 12.4738 121.519 12.4506 121.588 12.4506C121.658 12.4506 121.75 12.4275 121.866 12.4275C121.982 12.4275 122.075 12.4275 122.144 12.4506C122.214 12.4506 122.283 12.4738 122.33 12.497C122.376 12.5201 122.399 12.5433 122.422 12.5896C122.445 12.6128 122.445 12.6591 122.445 12.7054V25.7932Z" fill="black"/>
<path d="M133.448 21.2994C133.448 21.9943 133.356 22.6429 133.17 23.222C132.985 23.8011 132.73 24.3339 132.36 24.7508C131.989 25.1909 131.549 25.5152 131.016 25.77C130.483 26.0017 129.858 26.1407 129.14 26.1407C128.445 26.1407 127.843 26.0249 127.333 25.8164C126.823 25.6079 126.383 25.2836 126.036 24.8898C125.688 24.496 125.433 23.9864 125.248 23.4073C125.086 22.8282 124.993 22.1796 124.993 21.4615C124.993 20.7666 125.086 20.118 125.271 19.5389C125.457 18.9598 125.711 18.4502 126.082 18.0101C126.453 17.57 126.893 17.2457 127.426 17.014C127.958 16.7824 128.584 16.6434 129.302 16.6434C129.997 16.6434 130.599 16.7592 131.109 16.9677C131.618 17.1762 132.058 17.5005 132.406 17.8943C132.753 18.288 133.008 18.7977 133.193 19.3768C133.356 19.9327 133.448 20.5813 133.448 21.2994ZM132.221 21.4152C132.221 20.9056 132.174 20.4423 132.082 19.979C131.989 19.5157 131.827 19.122 131.595 18.7745C131.364 18.427 131.062 18.1491 130.692 17.9406C130.321 17.7321 129.835 17.6394 129.256 17.6394C128.723 17.6394 128.283 17.7321 127.889 17.9174C127.518 18.1027 127.194 18.3575 126.962 18.705C126.731 19.0525 126.545 19.4231 126.43 19.8864C126.314 20.3496 126.244 20.8361 126.244 21.3457C126.244 21.8553 126.291 22.3418 126.383 22.7819C126.476 23.2452 126.638 23.6389 126.87 23.9864C127.101 24.3339 127.402 24.6118 127.773 24.7972C128.144 25.0056 128.63 25.0983 129.209 25.0983C129.742 25.0983 130.182 25.0056 130.576 24.8203C130.947 24.635 131.271 24.3802 131.502 24.0327C131.734 23.7084 131.919 23.3146 132.035 22.8514C132.174 22.4344 132.221 21.948 132.221 21.4152Z" fill="black"/>
<path d="M142.204 25.7932C142.204 25.8627 142.181 25.9091 142.135 25.9322C142.089 25.9786 142.042 26.0017 141.973 26.0017C141.903 26.0249 141.811 26.0249 141.695 26.0249C141.579 26.0249 141.486 26.0249 141.417 26.0017C141.347 25.9785 141.278 25.9554 141.231 25.9322C141.185 25.8859 141.162 25.8396 141.162 25.7932V24.8203C140.768 25.2373 140.328 25.5848 139.865 25.8164C139.378 26.048 138.892 26.1639 138.382 26.1639C137.919 26.1639 137.502 26.0944 137.155 25.9785C136.784 25.8627 136.483 25.6774 136.228 25.4689C135.973 25.2373 135.788 24.9825 135.649 24.6582C135.51 24.3339 135.44 23.9864 135.44 23.5926C135.44 23.1062 135.533 22.6893 135.742 22.3186C135.95 21.948 136.228 21.67 136.599 21.4152C136.969 21.1836 137.409 20.9983 137.919 20.8824C138.429 20.7666 139.008 20.6971 139.656 20.6971H141.046V19.9327C141.046 19.5621 141 19.2146 140.93 18.9367C140.861 18.6587 140.722 18.4039 140.56 18.2186C140.374 18.0333 140.166 17.8711 139.888 17.7785C139.61 17.6858 139.263 17.6395 138.869 17.6395C138.475 17.6395 138.127 17.6858 137.826 17.7785C137.525 17.8711 137.247 17.9869 137.016 18.1028C136.784 18.2186 136.599 18.3344 136.436 18.4271C136.274 18.5197 136.182 18.566 136.112 18.566C136.066 18.566 136.043 18.566 135.996 18.5429C135.973 18.5197 135.927 18.4965 135.904 18.4734C135.881 18.4271 135.857 18.4039 135.857 18.3344C135.857 18.2881 135.834 18.2186 135.834 18.1259C135.834 17.9869 135.834 17.8711 135.857 17.8016C135.881 17.7321 135.927 17.6395 136.02 17.57C136.089 17.5005 136.251 17.3847 136.46 17.292C136.668 17.1994 136.9 17.0835 137.178 16.9909C137.456 16.8982 137.734 16.8287 138.058 16.7592C138.382 16.6898 138.683 16.6666 138.985 16.6666C139.587 16.6666 140.096 16.7361 140.513 16.8751C140.93 17.014 141.255 17.2225 141.509 17.5005C141.764 17.7785 141.95 18.1028 142.065 18.4965C142.181 18.8903 142.228 19.3536 142.228 19.8401V25.7932H142.204ZM141.046 21.6469H139.448C138.985 21.6469 138.568 21.6932 138.22 21.7627C137.873 21.8322 137.572 21.9712 137.34 22.1333C137.108 22.2955 136.923 22.4808 136.83 22.7124C136.714 22.9441 136.668 23.1989 136.668 23.5C136.668 24.0096 136.83 24.4034 137.155 24.7045C137.479 25.0057 137.919 25.1446 138.498 25.1446C138.961 25.1446 139.378 25.0288 139.795 24.7972C140.189 24.5655 140.606 24.1949 141.069 23.7085V21.6469H141.046Z" fill="black"/>
<path d="M152.512 25.7932C152.512 25.8395 152.512 25.8858 152.489 25.909C152.466 25.9322 152.443 25.9785 152.397 25.9785C152.35 26.0017 152.304 26.0017 152.234 26.0248C152.165 26.0248 152.095 26.048 152.003 26.048C151.91 26.048 151.817 26.048 151.748 26.0248C151.678 26.0248 151.632 26.0017 151.586 25.9785C151.539 25.9553 151.516 25.9322 151.493 25.909C151.47 25.8858 151.47 25.8395 151.47 25.7932V24.5192C151.007 25.0288 150.52 25.4226 150.034 25.7005C149.524 25.9785 148.991 26.1406 148.412 26.1406C147.787 26.1406 147.231 26.0248 146.791 25.77C146.351 25.5152 145.98 25.1909 145.702 24.774C145.424 24.357 145.216 23.8706 145.077 23.2915C144.938 22.7355 144.891 22.1333 144.891 21.4847C144.891 20.7434 144.961 20.0716 145.123 19.4694C145.285 18.8671 145.517 18.3575 145.841 17.9405C146.165 17.5236 146.559 17.1993 147.022 16.9677C147.486 16.736 148.018 16.6202 148.644 16.6202C149.177 16.6202 149.663 16.736 150.103 16.9677C150.543 17.1993 150.984 17.5468 151.4 18.01V12.7055C151.4 12.6591 151.4 12.636 151.424 12.5896C151.447 12.5433 151.47 12.5202 151.516 12.5202C151.563 12.497 151.632 12.4738 151.702 12.4738C151.771 12.4507 151.864 12.4507 151.98 12.4507C152.095 12.4507 152.188 12.4507 152.258 12.4738C152.327 12.497 152.397 12.497 152.443 12.5202C152.489 12.5433 152.512 12.5665 152.536 12.5896C152.559 12.6128 152.559 12.6591 152.559 12.7055V25.7932H152.512ZM151.354 19.4462C150.868 18.8671 150.404 18.4038 149.941 18.1027C149.501 17.8016 149.015 17.6394 148.528 17.6394C148.088 17.6394 147.694 17.7552 147.393 17.9637C147.069 18.1722 146.814 18.4502 146.606 18.7976C146.397 19.1451 146.258 19.5389 146.165 19.979C146.073 20.4191 146.026 20.8592 146.026 21.3225C146.026 21.809 146.073 22.2722 146.142 22.7355C146.212 23.1988 146.351 23.6158 146.536 23.9632C146.721 24.3338 146.976 24.6118 147.277 24.8203C147.578 25.0288 147.972 25.1446 148.435 25.1446C148.667 25.1446 148.899 25.1214 149.107 25.0519C149.339 24.9824 149.547 24.8898 149.779 24.7276C150.011 24.5886 150.242 24.3802 150.497 24.1485C150.752 23.9169 151.007 23.6158 151.308 23.2683V19.4462H151.354Z" fill="black"/>
<path d="M168.032 21.2994C168.032 21.9943 167.94 22.6429 167.754 23.222C167.569 23.8011 167.314 24.3339 166.944 24.7508C166.573 25.1909 166.133 25.5152 165.6 25.77C165.067 26.0248 164.442 26.1407 163.724 26.1407C163.029 26.1407 162.427 26.0249 161.917 25.8164C161.407 25.6079 160.967 25.2836 160.62 24.8898C160.272 24.496 160.017 23.9864 159.832 23.4073C159.67 22.8282 159.577 22.1796 159.577 21.4615C159.577 20.7666 159.67 20.118 159.855 19.5389C160.041 18.9598 160.295 18.4502 160.666 18.0101C161.037 17.57 161.477 17.2457 162.01 17.014C162.542 16.7824 163.168 16.6434 163.886 16.6434C164.581 16.6434 165.183 16.7592 165.693 16.9677C166.202 17.1762 166.642 17.5005 166.99 17.8943C167.337 18.288 167.592 18.7977 167.777 19.3768C167.94 19.9327 168.032 20.5813 168.032 21.2994ZM166.805 21.4152C166.805 20.9056 166.758 20.4423 166.666 19.979C166.573 19.5157 166.411 19.122 166.179 18.7745C165.948 18.427 165.646 18.1491 165.276 17.9406C164.905 17.7321 164.419 17.6394 163.84 17.6394C163.307 17.6394 162.867 17.7321 162.473 17.9174C162.102 18.1027 161.778 18.3575 161.546 18.705C161.315 19.0293 161.129 19.4231 161.014 19.8864C160.898 20.3496 160.828 20.8361 160.828 21.3457C160.828 21.8553 160.875 22.3418 160.967 22.7819C161.06 23.2452 161.222 23.6389 161.454 23.9864C161.685 24.3339 161.986 24.6118 162.357 24.7972C162.728 25.0056 163.214 25.0983 163.793 25.0983C164.326 25.0983 164.766 25.0056 165.16 24.8203C165.531 24.635 165.855 24.3802 166.086 24.0327C166.318 23.7084 166.503 23.3146 166.619 22.8514C166.735 22.4344 166.805 21.948 166.805 21.4152Z" fill="black"/>
<path d="M177.738 25.7932C177.738 25.8396 177.738 25.8627 177.715 25.9091C177.692 25.9322 177.669 25.9785 177.622 25.9785C177.576 26.0017 177.53 26.0249 177.437 26.0249C177.367 26.048 177.275 26.048 177.159 26.048C177.043 26.048 176.95 26.048 176.881 26.0249C176.811 26.0017 176.742 26.0017 176.696 25.9785C176.649 25.9554 176.626 25.9322 176.603 25.9091C176.58 25.8859 176.58 25.8396 176.58 25.7932V20.5813C176.58 20.0485 176.533 19.5853 176.464 19.261C176.371 18.9135 176.255 18.6355 176.093 18.3807C175.931 18.1491 175.7 17.9406 175.445 17.8248C175.19 17.6858 174.866 17.6163 174.518 17.6163C174.078 17.6163 173.615 17.7785 173.175 18.1028C172.735 18.4271 172.248 18.8903 171.762 19.4926V25.7932C171.762 25.8396 171.762 25.8627 171.739 25.9091C171.715 25.9322 171.692 25.9785 171.646 25.9785C171.6 26.0017 171.553 26.0249 171.461 26.0249C171.391 26.048 171.298 26.048 171.183 26.048C171.067 26.048 170.974 26.048 170.905 26.0249C170.835 26.0017 170.766 26.0017 170.719 25.9785C170.673 25.9554 170.65 25.9322 170.627 25.9091C170.603 25.8859 170.603 25.8396 170.603 25.7932V17.014C170.603 16.9677 170.603 16.9446 170.627 16.8982C170.65 16.8751 170.673 16.8287 170.719 16.8056C170.766 16.7824 170.812 16.7592 170.881 16.7592C170.951 16.7592 171.044 16.7361 171.159 16.7361C171.275 16.7361 171.368 16.7361 171.437 16.7592C171.507 16.7592 171.553 16.7824 171.6 16.8056C171.646 16.8287 171.669 16.8519 171.692 16.8982C171.715 16.9214 171.715 16.9677 171.715 17.014V18.2649C172.225 17.709 172.711 17.292 173.198 17.0372C173.684 16.7824 174.171 16.6666 174.634 16.6666C175.213 16.6666 175.7 16.7592 176.093 16.9677C176.487 17.153 176.811 17.431 177.043 17.7553C177.275 18.0796 177.46 18.4734 177.576 18.9135C177.692 19.3536 177.738 19.8864 177.738 20.5118V25.7932V25.7932Z" fill="black"/>
<path d="M189.691 25.2605C189.691 25.3995 189.691 25.5153 189.668 25.5848C189.644 25.6774 189.598 25.7469 189.552 25.7933C189.505 25.8396 189.436 25.8859 189.343 25.9322C189.251 25.9786 189.135 26.0017 189.019 26.0481C188.903 26.0712 188.764 26.0944 188.625 26.1175C188.486 26.1407 188.347 26.1407 188.231 26.1407C187.791 26.1407 187.421 26.0712 187.12 25.9554C186.818 25.8396 186.564 25.6543 186.378 25.4226C186.193 25.191 186.054 24.8899 185.961 24.5192C185.869 24.1486 185.822 23.7316 185.822 23.2452V17.7785H184.502C184.409 17.7785 184.34 17.7321 184.294 17.6627C184.247 17.5932 184.224 17.4542 184.224 17.292C184.224 17.1994 184.224 17.1299 184.247 17.0836C184.27 17.0141 184.27 16.9677 184.317 16.9214C184.34 16.8751 184.363 16.8519 184.409 16.8287C184.456 16.8056 184.479 16.8056 184.525 16.8056H185.846V14.6513C185.846 14.605 185.846 14.5818 185.869 14.5355C185.892 14.5123 185.915 14.466 185.961 14.4428C186.008 14.4197 186.077 14.3965 186.147 14.3965C186.216 14.3965 186.309 14.3734 186.425 14.3734C186.54 14.3734 186.633 14.3733 186.703 14.3965C186.772 14.3965 186.842 14.4197 186.888 14.4428C186.934 14.466 186.957 14.4892 186.981 14.5355C187.004 14.5587 187.004 14.605 187.004 14.6513V16.8056H189.436C189.482 16.8056 189.529 16.8056 189.552 16.8287C189.598 16.8519 189.621 16.8751 189.644 16.9214C189.668 16.9677 189.691 17.0141 189.714 17.0836C189.737 17.153 189.737 17.2225 189.737 17.292C189.737 17.4542 189.714 17.57 189.644 17.6627C189.598 17.7321 189.529 17.7785 189.436 17.7785H187.004V23.083C187.004 23.7548 187.096 24.2644 187.282 24.6119C187.467 24.9593 187.814 25.1447 188.324 25.1447C188.486 25.1447 188.625 25.1215 188.741 25.0983C188.857 25.0752 188.973 25.0288 189.065 24.9825C189.158 24.9362 189.251 24.913 189.32 24.8667C189.39 24.8435 189.459 24.8204 189.505 24.8204C189.529 24.8204 189.575 24.8204 189.598 24.8435C189.621 24.8667 189.644 24.8898 189.668 24.913C189.691 24.9593 189.691 24.9825 189.714 25.052C189.668 25.1215 189.691 25.191 189.691 25.2605Z" fill="black"/>
<path d="M199.119 25.7932C199.119 25.8395 199.119 25.8627 199.095 25.909C199.072 25.9553 199.049 25.9785 199.003 25.9785C198.956 26.0016 198.91 26.0248 198.817 26.0248C198.748 26.048 198.655 26.048 198.539 26.048C198.424 26.048 198.331 26.048 198.262 26.0248C198.192 26.0016 198.123 26.0016 198.076 25.9785C198.03 25.9553 198.007 25.9321 197.983 25.909C197.96 25.8858 197.96 25.8395 197.96 25.7932V20.5812C197.96 20.0485 197.914 19.5852 197.845 19.2609C197.752 18.9134 197.636 18.6355 197.474 18.3806C197.312 18.149 197.08 17.9405 196.825 17.8247C196.57 17.6857 196.246 17.6162 195.899 17.6162C195.459 17.6162 194.995 17.7784 194.555 18.1027C194.115 18.427 193.629 18.8903 193.142 19.4925V25.7932C193.142 25.8395 193.142 25.8627 193.119 25.909C193.096 25.9321 193.073 25.9785 193.026 25.9785C192.98 26.0016 192.934 26.0248 192.841 26.0248C192.772 26.048 192.679 26.048 192.563 26.048C192.447 26.048 192.355 26.048 192.285 26.0248C192.216 26.0016 192.146 26.0016 192.1 25.9785C192.054 25.9553 192.03 25.9321 192.007 25.909C191.984 25.8858 191.984 25.8395 191.984 25.7932V12.7054C191.984 12.6591 191.984 12.636 192.007 12.5896C192.03 12.5665 192.054 12.5201 192.1 12.497C192.146 12.4738 192.216 12.4506 192.285 12.4506C192.355 12.4506 192.447 12.4275 192.563 12.4275C192.679 12.4275 192.772 12.4275 192.841 12.4506C192.911 12.4506 192.98 12.4738 193.026 12.497C193.073 12.5201 193.096 12.5433 193.119 12.5896C193.142 12.6128 193.142 12.6591 193.142 12.7054V18.1953C193.629 17.6626 194.092 17.2688 194.578 17.014C195.065 16.7592 195.528 16.6433 196.015 16.6433C196.594 16.6433 197.08 16.736 197.474 16.9445C197.868 17.1298 198.192 17.4078 198.424 17.7321C198.655 18.0564 198.841 18.4501 198.956 18.8903C199.072 19.3304 199.119 19.8631 199.119 20.4886V25.7932V25.7932Z" fill="black"/>
<path d="M209.496 20.9519C209.496 21.1835 209.427 21.3457 209.311 21.4383C209.195 21.531 209.079 21.5773 208.94 21.5773H202.941C202.941 22.1101 202.987 22.6197 203.103 23.0598C203.219 23.4999 203.381 23.8706 203.636 24.1949C203.89 24.5192 204.191 24.7508 204.608 24.913C205.002 25.0751 205.489 25.1678 206.068 25.1678C206.485 25.1678 206.832 25.1214 207.156 25.0519C207.481 24.9824 207.759 24.913 207.99 24.8203C208.222 24.7276 208.43 24.6581 208.569 24.5887C208.732 24.5192 208.824 24.4728 208.894 24.4728C208.94 24.4728 208.963 24.4728 209.01 24.496C209.033 24.5192 209.079 24.5423 209.079 24.5887C209.102 24.635 209.102 24.6813 209.125 24.7508C209.125 24.8203 209.149 24.8898 209.149 24.9824C209.149 25.0288 209.149 25.0751 209.149 25.1214C209.149 25.1678 209.125 25.1909 209.125 25.2372C209.125 25.2836 209.102 25.3067 209.079 25.3299C209.056 25.3531 209.033 25.3994 209.01 25.4226C208.986 25.4457 208.871 25.5152 208.708 25.5847C208.546 25.6542 208.315 25.7469 208.037 25.8164C207.759 25.8858 207.458 25.9785 207.087 26.0248C206.716 26.0943 206.346 26.1175 205.929 26.1175C205.257 26.1175 204.655 26.0248 204.122 25.8164C203.589 25.6079 203.149 25.3067 202.802 24.913C202.454 24.5192 202.176 24.0096 201.991 23.4304C201.806 22.8513 201.713 22.1564 201.713 21.392C201.713 20.6508 201.806 19.979 201.991 19.3999C202.176 18.8208 202.454 18.3112 202.802 17.8942C203.149 17.4773 203.589 17.1761 204.099 16.9445C204.608 16.7129 205.164 16.6202 205.767 16.6202C206.438 16.6202 206.994 16.736 207.458 16.9445C207.921 17.1761 208.315 17.4541 208.616 17.8247C208.917 18.1954 209.149 18.6355 209.288 19.1219C209.427 19.6084 209.496 20.1412 209.496 20.6739V20.9519V20.9519ZM208.291 20.6044C208.315 19.6779 208.106 18.9366 207.643 18.427C207.203 17.8942 206.554 17.6394 205.697 17.6394C205.257 17.6394 204.863 17.7321 204.539 17.8942C204.215 18.0564 203.914 18.288 203.705 18.5428C203.473 18.8208 203.288 19.1219 203.172 19.4926C203.056 19.8632 202.987 20.2338 202.964 20.6044H208.291Z" fill="black"/>
<path d="M110.47 44.7645C110.238 43.7222 109.844 42.7956 109.311 42.008C108.779 41.1973 108.06 40.5487 107.203 40.0854C106.346 39.6221 105.304 39.3905 104.123 39.3905C103.567 39.3905 103.034 39.46 102.547 39.5758C102.061 39.6916 101.551 39.9001 101.088 40.1549C100.625 40.4097 100.162 40.734 99.7214 41.1046C99.5361 41.2436 99.3508 41.4057 99.1655 41.5911V39.3905H96.3163V62.6241H99.3508V55.3042C99.4898 55.42 99.6288 55.5358 99.7446 55.6517C100.138 55.976 100.555 56.2539 100.972 56.4624C101.389 56.6941 101.829 56.8562 102.269 56.9489C102.71 57.0647 103.173 57.111 103.659 57.111C104.794 57.111 105.837 56.8794 106.74 56.4624C107.644 56.0223 108.408 55.3969 109.01 54.6093C109.612 53.8217 110.076 52.8488 110.377 51.7369C110.678 50.6482 110.84 49.3974 110.84 48.0307C110.817 46.8725 110.701 45.7838 110.47 44.7645ZM107.458 50.6019C107.296 51.32 107.064 51.9917 106.74 52.5708C106.416 53.1268 106.022 53.5669 105.512 53.9144C105.026 54.2387 104.447 54.4008 103.775 54.4008C103.011 54.4008 102.316 54.1692 101.598 53.6596C100.88 53.1499 100.138 52.4319 99.3508 51.5053V45.112C99.7909 44.5792 100.208 44.116 100.602 43.7453C101.019 43.3515 101.436 43.0272 101.806 42.7724C102.177 42.5408 102.547 42.3555 102.872 42.2628C103.219 42.1702 103.567 42.1007 103.937 42.1007C104.655 42.1007 105.234 42.2628 105.698 42.5871C106.161 42.9114 106.555 43.3515 106.833 43.9075C107.134 44.4866 107.342 45.1583 107.481 45.8996C107.62 46.664 107.69 47.4979 107.69 48.3318C107.69 49.0962 107.597 49.8606 107.458 50.6019Z" fill="black"/>
<path d="M128.653 44.7645C128.422 43.7222 128.028 42.7956 127.495 42.008C126.962 41.1973 126.244 40.5487 125.387 40.0854C124.53 39.6221 123.488 39.3905 122.306 39.3905C121.75 39.3905 121.218 39.46 120.731 39.5758C120.245 39.6916 119.758 39.9001 119.272 40.1549C118.809 40.4097 118.345 40.734 117.905 41.1046C117.72 41.2436 117.535 41.4057 117.349 41.5911V39.3905H114.5V62.6241H117.535V55.3042C117.674 55.42 117.813 55.5358 117.928 55.6517C118.322 55.976 118.739 56.2539 119.156 56.4624C119.573 56.6941 120.013 56.8562 120.453 56.9489C120.893 57.0647 121.357 57.111 121.843 57.111C122.978 57.111 124.021 56.8794 124.924 56.4624C125.827 56.0223 126.592 55.3969 127.194 54.6093C127.796 53.8217 128.26 52.8488 128.561 51.7369C128.862 50.6482 129.024 49.3974 129.024 48.0307C129.001 46.8725 128.885 45.7838 128.653 44.7645ZM125.642 50.6019C125.48 51.32 125.248 51.9917 124.924 52.5708C124.6 53.1268 124.206 53.5669 123.696 53.9144C123.21 54.2387 122.631 54.4008 121.959 54.4008C121.195 54.4008 120.5 54.1692 119.782 53.6596C119.063 53.1499 118.322 52.4319 117.535 51.5053V45.112C117.975 44.5792 118.392 44.116 118.785 43.7453C119.202 43.3515 119.619 43.0272 119.99 42.7724C120.361 42.5408 120.731 42.3555 121.056 42.2628C121.403 42.1702 121.75 42.1007 122.121 42.1007C122.839 42.1007 123.418 42.2628 123.882 42.5871C124.345 42.9114 124.739 43.3515 125.017 43.9075C125.318 44.4866 125.526 45.1583 125.665 45.8996C125.804 46.664 125.874 47.4979 125.874 48.3318C125.874 49.0962 125.804 49.8606 125.642 50.6019Z" fill="black"/>
<path d="M180.379 41.7532C179.73 40.9888 178.896 40.3865 177.923 39.9927C176.95 39.599 175.839 39.3905 174.565 39.3905C173.244 39.3905 172.063 39.6221 171.044 40.0622C170.024 40.5024 169.167 41.1509 168.496 41.9617C167.824 42.7724 167.314 43.7222 166.99 44.834C166.666 45.9227 166.503 47.1041 166.503 48.3781C166.503 49.6985 166.666 50.903 166.967 51.9454C167.291 53.011 167.778 53.9607 168.426 54.7251C169.075 55.4895 169.909 56.0918 170.881 56.5087C171.854 56.9257 172.966 57.111 174.24 57.111C175.561 57.111 176.742 56.8794 177.738 56.4161C178.757 55.9528 179.614 55.3042 180.286 54.4935C180.958 53.6827 181.468 52.7098 181.815 51.6211C182.139 50.5324 182.325 49.351 182.325 48.077C182.325 46.7798 182.162 45.5753 181.838 44.5097C181.514 43.4674 181.027 42.5176 180.379 41.7532ZM179.174 48.2855C179.174 49.1657 179.082 49.9996 178.873 50.764C178.688 51.5053 178.387 52.1307 178.016 52.6635C177.645 53.1731 177.136 53.5901 176.557 53.8912C175.954 54.1923 175.213 54.3313 174.379 54.3313C173.453 54.3313 172.688 54.1692 172.086 53.868C171.484 53.5669 171.02 53.1268 170.65 52.594C170.279 52.0381 170.024 51.3895 169.862 50.6482C169.7 49.8838 169.607 49.0731 169.607 48.216C169.607 47.3358 169.7 46.5018 169.909 45.7606C170.094 45.0193 170.395 44.3939 170.789 43.8611C171.159 43.3515 171.669 42.9346 172.248 42.6334C172.85 42.3323 173.592 42.1933 174.426 42.1933C175.352 42.1933 176.117 42.3555 176.696 42.6798C177.298 43.0041 177.761 43.421 178.132 43.977C178.502 44.5329 178.757 45.1815 178.919 45.9227C179.105 46.6408 179.174 47.4516 179.174 48.2855Z" fill="black"/>
<path d="M85.8925 34.4102H82.302L74.7969 57.0879H77.8546L79.5224 50.5788H88.5332L90.2705 57.0879H93.3745L85.8925 34.4102ZM80.4952 47.8454L83.993 37.8848L87.5603 47.8454H80.4952Z" fill="black"/>
<path d="M152.698 47.8917C152.373 47.1968 151.956 46.5945 151.424 46.0849C150.914 45.5753 150.312 45.1352 149.663 44.7877C149.038 44.4402 148.389 44.0928 147.741 43.7916C147.092 43.4905 146.467 43.1894 145.841 42.8882C145.262 42.6103 144.729 42.286 144.266 41.9154C143.826 41.5679 143.478 41.1973 143.2 40.7572C142.946 40.3402 142.83 39.8306 142.83 39.2515C142.83 38.8577 142.899 38.4639 143.038 38.0933C143.177 37.7458 143.386 37.4447 143.664 37.1667C143.942 36.9119 144.312 36.6803 144.729 36.5181C145.169 36.356 145.702 36.2633 146.328 36.2633C146.953 36.2633 147.532 36.3328 148.019 36.495C148.528 36.6571 148.968 36.8193 149.316 37.0046C149.686 37.213 150.011 37.3752 150.242 37.5373L151.493 34.9198C151.354 34.7808 151.099 34.6187 150.706 34.4102C150.358 34.2249 149.941 34.0396 149.478 33.9006C149.038 33.7616 148.551 33.6226 148.065 33.53C147.555 33.4373 147.046 33.391 146.559 33.391C145.586 33.391 144.66 33.53 143.826 33.7848C142.992 34.0627 142.251 34.4565 141.648 34.9661C141.046 35.4757 140.56 36.1243 140.212 36.8656C139.888 37.6068 139.703 38.4407 139.703 39.3673C139.703 40.317 139.865 41.1509 140.189 41.8459C140.513 42.5408 140.93 43.1431 141.463 43.6527C141.973 44.1623 142.575 44.6024 143.224 44.973C143.849 45.3205 144.498 45.6679 145.146 45.9691C145.795 46.2702 146.42 46.5713 147.022 46.8725C147.602 47.1504 148.134 47.4747 148.598 47.8222C149.038 48.1465 149.385 48.5403 149.64 48.9804C149.895 49.3974 150.011 49.907 150.011 50.4861C150.011 51.0652 149.918 51.5979 149.71 52.0612C149.501 52.5013 149.223 52.8951 148.852 53.1963C148.482 53.4974 148.042 53.7522 147.509 53.9144C146.976 54.0765 146.397 54.1692 145.748 54.1692C144.938 54.1692 144.243 54.0765 143.641 53.8912C143.015 53.7059 142.505 53.4974 142.065 53.2658C141.625 53.0341 141.255 52.8256 141 52.6403L140.374 55.7675C140.722 55.976 141.162 56.1613 141.672 56.3466C142.181 56.5319 142.76 56.694 143.409 56.833C144.057 56.972 144.776 57.0415 145.517 57.0415C146.606 57.0415 147.625 56.8794 148.551 56.6014C149.478 56.3003 150.312 55.8601 150.984 55.2579C151.678 54.6788 152.211 53.9607 152.605 53.1036C152.976 52.2697 153.184 51.32 153.184 50.2544C153.184 49.4205 153.022 48.5866 152.698 47.8917Z" fill="black"/>
<path d="M163.121 54.1229C162.959 54.1924 162.797 54.2387 162.589 54.285C162.403 54.3314 162.195 54.3545 161.963 54.3545C161.037 54.3545 160.712 53.9839 160.55 53.6828C160.249 53.15 160.11 52.3161 160.11 51.2274V42.3787H163.793V39.6685H160.133V36.356L157.099 37.6995V39.6685H155.454V42.3787H157.099V51.5053C157.099 52.4087 157.191 53.1963 157.354 53.8681C157.516 54.5862 157.817 55.1653 158.188 55.6517C158.581 56.1382 159.091 56.4856 159.716 56.7404C160.295 56.9721 161.014 57.0879 161.847 57.0879C162.102 57.0879 162.357 57.0647 162.612 57.0416C162.867 57.0184 163.121 56.9721 163.353 56.9026C163.608 56.8331 163.816 56.7636 164.025 56.6941L163.562 53.9376C163.423 53.9839 163.284 54.0534 163.121 54.1229Z" fill="black"/>
<path d="M192.772 39.3905C192.725 39.3905 192.679 39.3905 192.656 39.3905C192.285 39.3905 191.891 39.4368 191.544 39.5295C191.173 39.6221 190.779 39.8074 190.386 40.0391C190.015 40.2707 189.621 40.6182 189.227 41.0351C189.112 41.1741 188.973 41.3131 188.857 41.4521V39.3673H185.938V57.0647H188.973V45.6448C189.366 45.0193 189.737 44.4866 190.061 44.0465C190.409 43.6063 190.733 43.2357 191.011 42.9578C191.289 42.7029 191.567 42.5176 191.822 42.4018C192.053 42.286 192.285 42.2397 192.517 42.2397C192.586 42.2397 192.656 42.2397 192.748 42.2397L193.281 42.286V39.3673L192.772 39.3905Z" fill="black"/>
<path d="M207.898 53.2889C207.828 53.3121 207.759 53.3584 207.689 53.3816C207.434 53.4974 207.11 53.6364 206.693 53.7754C206.299 53.9143 205.813 54.0533 205.28 54.1692C204.747 54.285 204.122 54.3545 203.45 54.3545C202.5 54.3545 201.713 54.2155 201.087 53.9607C200.462 53.7059 199.976 53.3121 199.582 52.8256C199.188 52.3392 198.91 51.7138 198.748 51.0188C198.609 50.4166 198.516 49.7448 198.493 49.0267H208.546C208.847 49.0267 209.172 48.9109 209.473 48.7024C209.82 48.4476 210.006 48.0307 210.006 47.4516V47.0346C210.006 46.0386 209.867 45.0657 209.612 44.1623C209.357 43.2357 208.917 42.4018 208.361 41.7069C207.782 40.9888 207.041 40.4328 206.16 40.0159C205.28 39.5989 204.215 39.3905 202.964 39.3905C201.829 39.3905 200.763 39.5989 199.813 39.9927C198.864 40.4097 198.053 41.0119 197.381 41.7764C196.709 42.5408 196.2 43.4905 195.829 44.5792C195.482 45.6679 195.296 46.8956 195.296 48.2623C195.296 49.6753 195.459 50.9262 195.806 52.0149C196.154 53.1268 196.663 54.0533 197.335 54.7946C198.007 55.559 198.864 56.1381 199.86 56.5087C200.833 56.8794 201.968 57.0878 203.219 57.0878C203.983 57.0878 204.701 57.0183 205.35 56.9025C205.998 56.7867 206.577 56.6477 207.064 56.5087C207.388 56.4161 207.666 56.3234 207.898 56.2308V53.2889ZM198.817 45.0425C199.003 44.4634 199.304 43.9538 199.651 43.5368C199.999 43.1199 200.462 42.7724 200.972 42.5176C201.481 42.2628 202.107 42.1238 202.802 42.1238C204.168 42.1238 205.164 42.5176 205.859 43.3284C206.485 44.0696 206.832 45.0888 206.855 46.3629H198.493C198.586 45.9227 198.678 45.4826 198.817 45.0425Z" fill="black"/>
</svg>
